<svg width="1440" height="1024" viewBox="0 0 1440 1024" fill="none" xmlns="http://www.w3.org/2000/svg">
<g clip-path="url(#clip0_506_2)">
<rect width="1440" height="1024" fill="#201717"/>
<rect x="-127.857" y="-90" width="443.9" height="323.372" rx="13" transform="rotate(20.1022 -127.857 -90)" fill="#261D1D"/>
<rect x="1194.71" y="359.434" width="443.9" height="323.372" rx="13" transform="rotate(20.1022 1194.71 359.434)" fill="#261D1D"/>
<ellipse cx="441.5" cy="1004.5" rx="119.5" ry="117.5" fill="#1D1C1C"/>
<ellipse cx="441.5" cy="1004.5" rx="119.5" ry="117.5" fill="#1D1C1C"/>
<ellipse cx="441.5" cy="1004.5" rx="119.5" ry="117.5" fill="#1D1C1C"/>
<ellipse cx="441.5" cy="1004.5" rx="119.5" ry="117.5" fill="#1D1C1C"/>
<ellipse cx="441.5" cy="1004.5" rx="119.5" ry="117.5" fill="#1D1C1C"/>
<ellipse cx="441.5" cy="1004.5" rx="119.5" ry="117.5" fill="#1D1C1C"/>
<ellipse cx="1413.91" cy="96.6172" rx="119.5" ry="117.5" fill="#1D1C1C"/>
<ellipse cx="1413.91" cy="96.6172" rx="119.5" ry="117.5" fill="#1D1C1C"/>
<ellipse cx="1413.91" cy="96.6172" rx="119.5" ry="117.5" fill="#1D1C1C"/>
<ellipse cx="1413.91" cy="96.6172" rx="119.5" ry="117.5" fill="#1D1C1C"/>
<ellipse cx="1413.91" cy="96.6172" rx="119.5" ry="117.5" fill="#1D1C1C"/>
<ellipse cx="1413.91" cy="96.6172" rx="119.5" ry="117.5" fill="#1D1C1C"/>
<ellipse cx="439.5" cy="201.5" rx="64.5" ry="60.5" fill="#1F1B1B"/>
<ellipse cx="962.996" cy="778.74" rx="64.5" ry="60.5" fill="#1F1B1B"/>
<ellipse cx="720" cy="305.74" rx="64.5" ry="60.5" fill="#1F1B1B"/>
<rect x="99.5586" y="629.566" width="205" height="204" rx="6" transform="rotate(12.9933 99.5586 629.566)" fill="#201919"/>
</g>
<defs>
<clipPath id="clip0_506_2">
<rect width="1440" height="1024" fill="white"/>
</clipPath>
</defs>
</svg>
